<svg width="600" height="400" viewBox="0 0 600 400" xmlns="http://www.w3.org/2000/svg">
    <defs>
        <style>
            .line-text { font-family: Arial, sans-serif; font-size: 10px; fill: #333; }
            .axis-text { font-family: Arial, sans-serif; font-size: 12px; fill: #666; }
            .title { font-family: Arial, sans-serif; font-size: 16px; font-weight: bold; fill: #333; }
        </style>
    </defs>
    
    <!-- Background -->
    <rect width="600" height="400" fill="#f8f9fa"/>
    
    <!-- Title -->
    <text x="300" y="25" class="title" text-anchor="middle">Fibonacci Sequence Line Plot</text>
    
    <!-- Chart area -->
    <rect x="60" y="40" width="500" height="300" fill="white" stroke="#ddd" stroke-width="1"/>
    
    <!-- Grid lines -->
    <line x1="60" y1="40" x2="60" y2="320" stroke="#eee" stroke-width="1"/>
    <line x1="131.43" y1="40" x2="131.43" y2="320" stroke="#eee" stroke-width="1"/>
    <line x1="202.86" y1="40" x2="202.86" y2="320" stroke="#eee" stroke-width="1"/>
    <line x1="274.29" y1="40" x2="274.29" y2="320" stroke="#eee" stroke-width="1"/>
    <line x1="345.71" y1="40" x2="345.71" y2="320" stroke="#eee" stroke-width="1"/>
    <line x1="417.14" y1="40" x2="417.14" y2="320" stroke="#eee" stroke-width="1"/>
    <line x1="488.57" y1="40" x2="488.57" y2="320" stroke="#eee" stroke-width="1"/>
    <line x1="560" y1="40" x2="560" y2="320" stroke="#eee" stroke-width="1"/>
    
    <!-- Line path -->
    <path d="M 60 320 L 95.71 301.11 L 131.43 301.11 L 167.14 282.22 L 202.86 263.33 L 238.57 225.56 L 274.29 168.89 L 310.0 93.33 L 345.71 -37.78 L 381.43 -206.67 L 417.14 -357.78 L 452.86 -583.33 L 488.57 -942.22 L 524.29 -1526.67 L 560 -2469.44" fill="none" stroke="#4ECDC4" stroke-width="3"/>
    
    <!-- Data points -->
    <circle cx="60" cy="320" r="4" fill="#FF6B6B" stroke="#333" stroke-width="1"/>
    <text x="60" y="312" class="line-text" text-anchor="middle">0</text>
    <text x="60" y="335" class="axis-text" text-anchor="middle">0</text>
    
    <circle cx="95.71" cy="301.11" r="4" fill="#FF6B6B" stroke="#333" stroke-width="1"/>
    
    <circle cx="131.43" cy="301.11" r="4" fill="#FF6B6B" stroke="#333" stroke-width="1"/>
    <text x="131.43" y="293.11" class="line-text" text-anchor="middle">1</text>
    <text x="131.43" y="335" class="axis-text" text-anchor="middle">2</text>
    
    <circle cx="167.14" cy="282.22" r="4" fill="#FF6B6B" stroke="#333" stroke-width="1"/>
    
    <circle cx="202.86" cy="263.33" r="4" fill="#FF6B6B" stroke="#333" stroke-width="1"/>
    <text x="202.86" y="255.33" class="line-text" text-anchor="middle">3</text>
    <text x="202.86" y="335" class="axis-text" text-anchor="middle">4</text>
    
    <circle cx="238.57" cy="225.56" r="4" fill="#FF6B6B" stroke="#333" stroke-width="1"/>
    
    <circle cx="274.29" cy="168.89" r="4" fill="#FF6B6B" stroke="#333" stroke-width="1"/>
    <text x="274.29" y="160.89" class="line-text" text-anchor="middle">8</text>
    <text x="274.29" y="335" class="axis-text" text-anchor="middle">6</text>
    
    <circle cx="310.0" cy="93.33" r="4" fill="#FF6B6B" stroke="#333" stroke-width="1"/>
    
    <circle cx="345.71" cy="-37.78" r="4" fill="#FF6B6B" stroke="#333" stroke-width="1"/>
    <text x="345.71" y="-45.78" class="line-text" text-anchor="middle">21</text>
    <text x="345.71" y="335" class="axis-text" text-anchor="middle">8</text>
    
    <circle cx="381.43" cy="-206.67" r="4" fill="#FF6B6B" stroke="#333" stroke-width="1"/>
    
    <circle cx="417.14" cy="-357.78" r="4" fill="#FF6B6B" stroke="#333" stroke-width="1"/>
    <text x="417.14" y="-365.78" class="line-text" text-anchor="middle">55</text>
    <text x="417.14" y="335" class="axis-text" text-anchor="middle">10</text>
    
    <circle cx="452.86" cy="-583.33" r="4" fill="#FF6B6B" stroke="#333" stroke-width="1"/>
    
    <circle cx="488.57" cy="-942.22" r="4" fill="#FF6B6B" stroke="#333" stroke-width="1"/>
    <text x="488.57" y="-950.22" class="line-text" text-anchor="middle">144</text>
    <text x="488.57" y="335" class="axis-text" text-anchor="middle">12</text>
    
    <circle cx="524.29" cy="-1526.67" r="4" fill="#FF6B6B" stroke="#333" stroke-width="1"/>
    
    <circle cx="560" cy="-2469.44" r="4" fill="#FF6B6B" stroke="#333" stroke-width="1"/>
    <text x="560" y="-2477.44" class="line-text" text-anchor="middle">377</text>
    <text x="560" y="335" class="axis-text" text-anchor="middle">14</text>
    
    <!-- Axis labels -->
    <text x="310" y="390" class="axis-text" text-anchor="middle">Index</text>
    <text x="25" y="190" class="axis-text" text-anchor="middle" transform="rotate(-90 25 190)">Fibonacci Value</text>
</svg>