<svg width="600" height="400" viewBox="0 0 600 400" xmlns="http://www.w3.org/2000/svg">
    <defs>
        <style>
            .ratio-text { font-family: Arial, sans-serif; font-size: 10px; fill: #333; }
            .axis-text { font-family: Arial, sans-serif; font-size: 12px; fill: #666; }
            .title { font-family: Arial, sans-serif; font-size: 16px; font-weight: bold; fill: #333; }
            .golden-text { font-family: Arial, sans-serif; font-size: 12px; fill: #ff6b6b; }
        </style>
    </defs>
    
    <!-- Background -->
    <rect width="600" height="400" fill="#f8f9fa"/>
    
    <!-- Title -->
    <text x="300" y="25" class="title" text-anchor="middle">Golden Ratio Convergence</text>
    
    <!-- Chart area -->
    <rect x="60" y="40" width="500" height="300" fill="white" stroke="#ddd" stroke-width="1"/>
    
    <!-- Golden ratio reference line -->
    <line x1="60" y1="218.14" x2="560" y2="218.14" stroke="#ff6b6b" stroke-width="2" stroke-dasharray="5,5"/>
    <text x="555" y="213.14" class="golden-text" text-anchor="end">φ = 1.618034</text>
    
    <!-- Ratio convergence line -->
    <path d="M 60 40 L 105.45 234.73 L 150.91 199.27 L 196.36 227.45 L 241.82 209.36 L 287.27 221.82 L 332.73 214.0 L 378.18 219.45 L 423.64 216.0 L 469.09 218.18 L 514.55 216.73 L 560 217.64" fill="none" stroke="#4ECDC4" stroke-width="3"/>
    
    <!-- Data points -->
    <circle cx="60" cy="40" r="4" fill="#45B7D1" stroke="#333" stroke-width="1"/>
    <text x="60" y="32" class="ratio-text" text-anchor="middle">1.0000</text>
    <text x="60" y="355" class="axis-text" text-anchor="middle">1</text>
    
    <circle cx="105.45" cy="234.73" r="4" fill="#45B7D1" stroke="#333" stroke-width="1"/>
    
    <circle cx="150.91" cy="199.27" r="4" fill="#45B7D1" stroke="#333" stroke-1"/>
    <text x="150.91" y="191.27" class="ratio-text" text-anchor="middle">1.6667</text>
    <text x="150.91" y="355" class="axis-text" text-anchor="middle">3</text>
    
    <circle cx="196.36" cy="227.45" r="4" fill="#45B7D1" stroke="#333" stroke-width="1"/>
    
    <circle cx="241.82" cy="209.36" r="4" fill="#45B7D1" stroke="#333" stroke-width="1"/>
    <text x="241.82" y="201.36" class="ratio-text" text-anchor="middle">1.6250</text>
    <text x="241.82" y="355" class="axis-text" text-anchor="middle">5</text>
    
    <circle cx="287.27" cy="221.82" r="4" fill="#45B7D1" stroke="#333" stroke-width="1"/>
    
    <circle cx="332.73" cy="214.0" r="4" fill="#45B7D1" stroke="#333" stroke-width="1"/>
    <text x="332.73" y="206.0" class="ratio-text" text-anchor="middle">1.6154</text>
    <text x="332.73" y="355" class="axis-text" text-anchor="middle">7</text>
    
    <circle cx="378.18" cy="219.45" r="4" fill="#45B7D1" stroke="#333" stroke-width="1"/>
    
    <circle cx="423.64" cy="216.0" r="4" fill="#45B7D1" stroke="#333" stroke-width="1"/>
    <text x="423.64" y="208.0" class="ratio-text" text-anchor="middle">1.6190</text>
    <text x="423.64" y="355" class="axis-text" text-anchor="middle">9</text>
    
    <circle cx="469.09" cy="218.18" r="4" fill="#45B7D1" stroke="#333" stroke-width="1"/>
    
    <circle cx="514.55" cy="216.73" r="4" fill="#45B7D1" stroke="#333" stroke-width="1"/>
    <text x="514.55" y="208.73" class="ratio-text" text-anchor="middle">1.6176</text>
    <text x="514.55" y="355" class="axis-text" text-anchor="middle">11</text>
    
    <circle cx="560" cy="217.64" r="4" fill="#45B7D1" stroke="#333" stroke-width="1"/>
    <text x="560" y="209.64" class="ratio-text" text-anchor="middle">1.6182</text>
    
    <!-- Axis labels -->
    <text x="310" y="390" class="axis-text" text-anchor="middle">n</text>
    <text x="25" y="190" class="axis-text" text-anchor="middle" transform="rotate(-90 25 190)">F(n+1)/F(n)</text>
</svg>